<svg width="25" height="25" viewBox="0 0 25 25" fill="none" xmlns="http://www.w3.org/2000/svg">
<path d="M20.3594 0.452148V2.35449H22.2617V4.25293H24.1641V24.2793H4.14648V22.377H2.24414V20.4736H0.341797V0.452148H20.3594ZM22.2617 22.3721H5.15332V23.2637H23.1533V5.26367H22.2617V22.3721ZM20.3633 20.4697H3.25488V21.3652H21.2549V3.36523H20.3633V20.4697ZM16.0537 9.44922C15.7886 9.44922 15.5792 9.58121 15.4756 9.80371L11.0244 19.4629H19.3477V15.6973L16.6318 9.80469L16.5879 9.72559C16.4744 9.55279 16.2844 9.44935 16.0537 9.44922ZM10.3555 6.40918C10.0903 6.40918 9.88094 6.54211 9.77734 6.76465L3.91992 19.4629H9.90918L13.3496 12.0098L10.9326 6.76367V6.7627C10.8283 6.54459 10.6184 6.40931 10.3555 6.40918ZM1.35254 19.4629H2.80469L8.84961 6.33887L8.9043 6.23145C9.19344 5.7115 9.73567 5.39359 10.3457 5.39355C11.0006 5.39355 11.5747 5.755 11.8418 6.33887L13.9004 10.8027L14.5566 9.38281H14.5576C14.8291 8.79966 15.4028 8.4375 16.0537 8.4375C16.7085 8.43767 17.2828 8.79897 17.5498 9.38281L19.3525 13.2881V1.46289H1.35254V19.4629Z" fill="white" stroke="white" stroke-width="0.25"/>
<path d="M16.4336 2.34998C17.5513 2.34998 18.4609 3.25966 18.4609 4.37732C18.4609 5.49504 17.5513 6.40466 16.4336 6.40466C15.3155 6.40459 14.4113 5.49491 14.4062 4.3783V4.37732C14.4063 3.25971 15.316 2.35005 16.4336 2.34998ZM16.4336 3.3656C15.8759 3.36568 15.417 3.82055 15.417 4.3822C15.417 4.94414 15.8717 5.39873 16.4336 5.3988C16.9956 5.3988 17.4501 4.94419 17.4502 4.3822C17.4502 3.82017 16.9956 3.3656 16.4336 3.3656Z" fill="white" stroke="white" stroke-width="0.25"/>
<path d="M5.02783 1.97412C5.82526 1.97412 6.53321 2.44103 6.85889 3.14307C7.61887 3.28703 8.19657 3.95771 8.19189 4.7583L8.18408 4.92627C8.09968 5.75622 7.39743 6.40468 6.54541 6.40479H3.50635C2.59755 6.40479 1.85907 5.66706 1.85889 4.7583C1.85889 3.95821 2.4366 3.28709 3.19678 3.14307C3.52646 2.44141 4.23435 1.97413 5.02783 1.97412ZM5.02783 2.98486C4.56965 2.98488 4.1651 3.29464 4.04932 3.74463V3.74561L3.9751 4.02881L3.95068 4.12158H3.50635C3.15776 4.12158 2.86963 4.40972 2.86963 4.7583C2.86981 5.11087 3.15738 5.39404 3.50635 5.39404H6.55029C6.89906 5.39381 7.18585 5.11072 7.18604 4.7583C7.18604 4.40572 6.89917 4.12182 6.55029 4.12158H6.10498L6.08057 4.02881L6.00635 3.74561C5.89064 3.2993 5.48564 2.98486 5.02783 2.98486Z" fill="white" stroke="white" stroke-width="0.25"/>
</svg>
