<svg width="52" height="51" viewBox="0 0 52 51" fill="none" xmlns="http://www.w3.org/2000/svg">
<path d="M50.7941 12.6329L48.2228 3.00893C48.0384 2.31892 47.4133 1.83887 46.6991 1.83887H5.19467C4.48041 1.83887 3.85536 2.31892 3.67093 3.00893L1.09965 12.6329C0.831629 13.6359 0.712158 14.5461 0.712158 15.5843V19.0217C0.712158 21.8956 2.64449 24.3251 5.27757 25.0835V42.3939C5.27757 45.7095 7.97502 48.4069 11.2905 48.4069H40.6031C43.9186 48.4069 46.6161 45.7095 46.6161 42.3939V25.0835C49.2492 24.3251 51.1816 21.8956 51.1816 19.0217V15.5843C51.1816 14.5461 51.0621 13.6359 50.7941 12.6329ZM6.40574 4.99321H45.488L47.5505 12.7131H4.3432L6.40574 4.99321ZM38.5642 19.0217C38.5642 20.7611 37.1492 22.1761 35.4099 22.1761C33.6706 22.1761 32.2555 20.7611 32.2555 19.0217V15.8674H38.5642V19.0217ZM13.3295 19.0217V15.8674H19.6382V19.0207V19.0217C19.6382 20.7611 18.2232 22.1761 16.4839 22.1761C14.7445 22.1761 13.3295 20.7611 13.3295 19.0217ZM22.7925 19.0217V15.8674H29.1012V19.0217C29.1012 20.7611 27.6862 22.1761 25.9469 22.1761C24.2075 22.1761 22.7925 20.7611 22.7925 19.0217ZM3.8665 19.0217V15.8674H10.1752V19.0207V19.0217C10.1752 20.7611 8.76016 22.1761 7.02084 22.1761C5.28151 22.1761 3.8665 20.7611 3.8665 19.0217ZM29.4333 45.2526H22.4605V34.3784C22.4605 33.4172 23.2425 32.6352 24.2038 32.6352H27.6901C28.6513 32.6352 29.4334 33.4172 29.4334 34.3784V45.2526H29.4333ZM40.6032 45.2526H32.5876V34.3784C32.5876 31.6779 30.3905 29.4808 27.69 29.4808H24.2037C21.5032 29.4808 19.3061 31.6778 19.3061 34.3784V45.2526H11.2905C9.71425 45.2526 8.43191 43.9702 8.43191 42.394V25.1703C9.73938 24.8704 10.8936 24.1639 11.7523 23.1904C12.9092 24.5019 14.6016 25.3305 16.4839 25.3305C18.3661 25.3305 20.0585 24.5019 21.2154 23.1903C22.3722 24.5019 24.0647 25.3305 25.9469 25.3305C27.829 25.3305 29.5215 24.5019 30.6784 23.1903C31.8352 24.5019 33.5277 25.3305 35.4099 25.3305C37.292 25.3305 38.9845 24.5019 40.1414 23.1904C41.0002 24.1639 42.1543 24.8704 43.4617 25.1703V42.394C43.4617 43.9702 42.1794 45.2526 40.6032 45.2526ZM44.8729 22.1761C43.1336 22.1761 41.7186 20.7611 41.7186 19.0217V15.8674H48.0272V19.0217C48.0272 20.7611 46.6122 22.1761 44.8729 22.1761Z" fill="#DB378B"/>
</svg>
