<svg width="25" height="24" viewBox="0 0 25 24" fill="none" xmlns="http://www.w3.org/2000/svg">
<path d="M24.141 17.7755C24.0037 17.7585 22.3355 17.6205 20.6168 15.4027C18.8981 13.1848 19.568 12.7894 19.654 12.5832C19.7401 12.377 20.828 12.0634 21.5277 11.7925C22.5944 11.3793 22.5425 10.6405 22.3704 10.2366C22.1983 9.83273 21.4936 9.47079 20.5308 9.88109C19.6163 10.2729 19.258 9.96713 19.258 9.96713C19.258 9.96713 19.4848 6.58237 19.3611 5.90968C18.2916 -0.0499166 12.5873 0.444998 12.5873 0.444998C12.5873 0.444998 6.88296 -0.052761 5.81349 5.91181C5.6926 6.58237 5.91659 9.96997 5.91659 9.96997C5.91659 9.96997 5.56105 10.2757 4.64375 9.88393C3.68094 9.47079 2.97626 9.83273 2.80418 10.2395C2.63209 10.6462 2.5809 11.3822 3.64681 11.7953C4.34652 12.0662 5.43519 12.3798 5.52052 12.5861C5.60585 12.7923 6.27711 13.1876 4.55771 15.4055C2.83831 17.6234 1.17082 17.7613 1.03358 17.7784C0.896337 17.7955 0.208008 17.8125 0.208008 18.2761C0.208008 18.7398 0.434844 19.5106 3.21732 19.9955C3.65606 20.0716 3.61268 20.3909 3.61268 20.3909C3.61268 20.3909 3.61268 21.4917 4.19719 21.5948C4.7817 21.6979 5.81348 21.3367 6.58714 21.4227C7.3608 21.5087 7.80737 21.4056 9.32055 22.6088C10.8337 23.8119 12.5873 23.7465 12.5873 23.7465C12.5873 23.7465 14.3408 23.8176 15.854 22.6088C17.3672 21.3999 17.8137 21.5087 18.5874 21.4227C19.3611 21.3367 20.3928 21.6958 20.9781 21.5926C21.5633 21.4895 21.5626 20.3888 21.5626 20.3888C21.5626 20.3888 21.5192 20.0695 21.9579 19.9934C24.7404 19.5085 24.9673 18.7384 24.9673 18.274C24.9673 17.8097 24.2789 17.7926 24.141 17.7755Z" fill="white"/>
</svg>
